<?xml version="1.0" encoding="utf-8"?>
<!-- Generator: Adobe Illustrator 18.1.1, SVG Export Plug-In . SVG Version: 6.00 Build 0)  -->
<svg version="1.1" id="Layer_1" xmlns="http://www.w3.org/2000/svg" xmlns:xlink="http://www.w3.org/1999/xlink" x="0px" y="0px"
	 viewBox="0 0 200 60" enable-background="new 0 0 200 60" xml:space="preserve">
<g>
	<path fill="#033D52" stroke="#023D51" stroke-miterlimit="10" d="M3.1,12.5H6v29.1H3.1V12.5z"/>
</g>
<g>
	<path stroke="#000000" stroke-width="0.7688" stroke-miterlimit="10" d="M2.1,51.9v-0.6h3.5v0.6H4.2v5.6H3.6v-5.6H2.1z"/>
	<path stroke="#000000" stroke-width="0.7688" stroke-miterlimit="10" d="M21.6,51.3h3.7v0.6h-3.1v1.9h3v0.6h-3v2.4h3v0.6h-3.7V51.3
		z"/>
	<path stroke="#000000" stroke-width="0.7688" stroke-miterlimit="10" d="M47.4,52.4l-0.5,0.4c-0.3-0.3-0.6-0.6-1-0.8
		c-0.4-0.2-0.8-0.3-1.3-0.3c-0.5,0-1,0.1-1.4,0.4s-0.8,0.6-1,1s-0.4,0.8-0.4,1.3c0,0.8,0.3,1.4,0.8,1.9c0.5,0.5,1.2,0.8,2,0.8
		c0.9,0,1.7-0.3,2.3-1l0.5,0.4c-0.3,0.4-0.7,0.7-1.2,0.9c-0.5,0.2-1,0.3-1.6,0.3c-1.1,0-2-0.4-2.7-1.1c-0.5-0.6-0.8-1.3-0.8-2.2
		c0-0.9,0.3-1.7,1-2.3c0.7-0.6,1.5-0.9,2.5-0.9c0.6,0,1.2,0.1,1.6,0.3S47.1,52,47.4,52.4z"/>
	<path stroke="#000000" stroke-width="0.7688" stroke-miterlimit="10" d="M63.7,51.3h0.6v2.6h3.3v-2.6h0.6v6.2h-0.6v-3h-3.3v3h-0.6
		V51.3z"/>
	<path stroke="#000000" stroke-width="0.7688" stroke-miterlimit="10" d="M84.8,57.5v-6.2H85l4.3,4.7v-4.7h0.6v6.2h-0.1l-4.3-4.7
		v4.7H84.8z"/>
	<path stroke="#000000" stroke-width="0.7688" stroke-miterlimit="10" d="M109.6,51.1c1,0,1.8,0.3,2.5,0.9c0.7,0.6,1,1.4,1,2.3
		c0,0.9-0.3,1.7-1,2.3c-0.7,0.6-1.5,0.9-2.4,0.9c-1,0-1.8-0.3-2.4-0.9c-0.7-0.6-1-1.4-1-2.3c0-0.6,0.2-1.1,0.5-1.6
		c0.3-0.5,0.7-0.9,1.2-1.2C108.4,51.3,109,51.1,109.6,51.1z M109.6,51.7c-0.5,0-0.9,0.1-1.4,0.4c-0.4,0.2-0.8,0.6-1,1
		c-0.2,0.4-0.4,0.9-0.4,1.3c0,0.7,0.3,1.4,0.8,1.9s1.2,0.8,1.9,0.8c0.5,0,1-0.1,1.4-0.3c0.4-0.2,0.8-0.5,1-1s0.4-0.8,0.4-1.3
		c0-0.5-0.1-0.9-0.4-1.3c-0.2-0.4-0.6-0.7-1-1C110.6,51.9,110.1,51.7,109.6,51.7z"/>
	<path stroke="#000000" stroke-width="0.7688" stroke-miterlimit="10" d="M129.3,51.3h0.6v5.6h2.5v0.6h-3.1V51.3z"/>
	<path stroke="#000000" stroke-width="0.7688" stroke-miterlimit="10" d="M151.5,51.1c1,0,1.8,0.3,2.5,0.9c0.7,0.6,1,1.4,1,2.3
		c0,0.9-0.3,1.7-1,2.3c-0.7,0.6-1.5,0.9-2.4,0.9c-1,0-1.8-0.3-2.4-0.9c-0.7-0.6-1-1.4-1-2.3c0-0.6,0.2-1.1,0.5-1.6
		c0.3-0.5,0.7-0.9,1.2-1.2C150.4,51.3,150.9,51.1,151.5,51.1z M151.6,51.7c-0.5,0-0.9,0.1-1.4,0.4c-0.4,0.2-0.8,0.6-1,1
		c-0.2,0.4-0.4,0.9-0.4,1.3c0,0.7,0.3,1.4,0.8,1.9s1.2,0.8,1.9,0.8c0.5,0,1-0.1,1.4-0.3c0.4-0.2,0.8-0.5,1-1s0.4-0.8,0.4-1.3
		c0-0.5-0.1-0.9-0.4-1.3c-0.2-0.4-0.6-0.7-1-1C152.5,51.9,152.1,51.7,151.6,51.7z"/>
	<path stroke="#000000" stroke-width="0.7688" stroke-miterlimit="10" d="M177.5,52.3l-0.5,0.5c-0.4-0.3-0.8-0.6-1.2-0.8
		c-0.4-0.2-0.8-0.3-1.3-0.3c-0.5,0-1,0.1-1.5,0.4c-0.5,0.2-0.8,0.6-1.1,1c-0.3,0.4-0.4,0.8-0.4,1.3c0,0.5,0.1,0.9,0.4,1.3
		c0.3,0.4,0.6,0.7,1.1,1c0.5,0.2,1,0.4,1.5,0.4c0.7,0,1.2-0.2,1.7-0.5s0.7-0.8,0.8-1.4h-2.1v-0.6h2.8c0,1-0.3,1.7-0.9,2.3
		c-0.6,0.6-1.4,0.8-2.4,0.8c-1.2,0-2.1-0.4-2.8-1.2c-0.5-0.6-0.8-1.3-0.8-2.1c0-0.6,0.2-1.1,0.5-1.6s0.7-0.9,1.3-1.2
		c0.5-0.3,1.1-0.4,1.8-0.4c0.5,0,1.1,0.1,1.5,0.3S177.1,51.9,177.5,52.3z"/>
	<path stroke="#000000" stroke-width="0.7688" stroke-miterlimit="10" d="M193.6,51.3h0.7l1.7,2.5l1.6-2.5h0.7l-2.1,3.2v2.9h-0.6
		v-2.9L193.6,51.3z"/>
</g>
<g>
	<path fill="#033D52" stroke="#023D51" stroke-miterlimit="10" d="M157.5,41.4l-3.2,0L144.6,19l-9.7,22.5l-3.2,0l12.5-29.1l0.6,0
		L157.5,41.4z"/>
</g>
<g>
	<path fill="#033D52" stroke="#023D51" stroke-miterlimit="10" d="M107.7,12.5h3.2l9.6,22.5l9.8-22.5h3.2l-12.6,29.1h-0.6
		L107.7,12.5z"/>
</g>
<g>
	<path fill="#033D52" stroke="#023D51" stroke-miterlimit="10" d="M160.3,15.4v-2.8h15.9v2.8h-6.5v26.2h-3V15.4H160.3z"/>
</g>
<g>
	<path fill="#033D52" stroke="#023D51" stroke-miterlimit="10" d="M182.2,12.5h16.7v2.8h-13.8v9.1h13.6v2.8h-13.6v11.4h13.6v2.8
		h-16.5V12.5z"/>
</g>
<g>
	<path fill="#033D52" stroke="#023D51" stroke-miterlimit="10" d="M13.9,41.6V12.5h0.6l19.3,22.3V12.5h2.9v29.1h-0.7l-19.2-22v22
		H13.9z"/>
</g>
<g>
	<path fill="#033D52" stroke="#023D51" stroke-miterlimit="10" d="M44.3,41.6V12.5H45l19.3,22.3V12.5h2.9v29.1h-0.7l-19.2-22v22
		H44.3z"/>
</g>
<g>
	<g>
		<g>
			<g>
				<g>
					<path fill="#0B9DD9" d="M106,28.6l1.4,0.3c0,0,0.1-1,0.3-2c0.1-1,0.1-2,0.1-2h-1.4c0,0,0,0.9-0.1,1.8
						C106.2,27.7,106,28.6,106,28.6z"/>
					<path fill="#0B9DD9" d="M104.1,33.7l1.3,0.7c0,0,0.1-0.2,0.3-0.6c0.2-0.3,0.4-0.8,0.6-1.2c0.3-0.9,0.7-1.9,0.7-1.9l-1.4-0.4
						c0,0-0.3,0.9-0.6,1.7c-0.2,0.4-0.4,0.8-0.6,1.1C104.2,33.5,104.1,33.7,104.1,33.7z"/>
					<path fill="#0B9DD9" d="M100.8,38l1,1c0,0,0.2-0.2,0.4-0.4c0.3-0.3,0.6-0.6,0.9-1c0.6-0.8,1.2-1.6,1.2-1.6l-1.2-0.8
						c0,0-0.5,0.7-1.1,1.5c-0.3,0.3-0.6,0.7-0.9,0.9C101,37.9,100.8,38,100.8,38z"/>
					<path fill="#0B9DD9" d="M96.4,41.2l0.7,1.3c0,0,0.2-0.1,0.6-0.3c0.3-0.2,0.7-0.4,1.2-0.7c0.4-0.2,0.8-0.6,1.1-0.8
						c0.3-0.2,0.5-0.4,0.5-0.4l-0.9-1.1c0,0-0.2,0.1-0.5,0.3c-0.3,0.2-0.6,0.5-1,0.7c-0.4,0.2-0.8,0.5-1.1,0.7
						C96.6,41.1,96.4,41.2,96.4,41.2z"/>
					<path fill="#0B9DD9" d="M91.2,42.9l0.3,1.4c0,0,0.2,0,0.6-0.1c0.4-0.1,0.8-0.2,1.3-0.3c0.5-0.1,0.9-0.3,1.3-0.4
						c0.3-0.1,0.6-0.2,0.6-0.2l-0.5-1.3c0,0-0.2,0.1-0.5,0.2c-0.3,0.1-0.8,0.3-1.2,0.4c-0.4,0.1-0.9,0.2-1.2,0.3
						C91.4,42.8,91.2,42.9,91.2,42.9z"/>
					<path fill="#0B9DD9" d="M85.8,43l-0.2,1.4c0,0,0.2,0.1,0.6,0.1c0.4,0,0.9,0,1.4,0.1c0.5,0,1,0,1.4,0c0.4,0,0.6,0,0.6,0
						l-0.1-1.4c0,0-0.2,0-0.6,0c-0.3,0-0.8,0.1-1.3,0c-0.5,0-0.9,0-1.3-0.1C86,43,85.8,43,85.8,43z"/>
					<path fill="#0B9DD9" d="M80.5,41.5L80,42.8c0,0,0.2,0.1,0.6,0.3c0.3,0.1,0.8,0.3,1.3,0.5c0.5,0.2,0.9,0.3,1.3,0.4
						c0.4,0.1,0.6,0.2,0.6,0.2l0.3-1.4c0,0-0.2-0.1-0.6-0.1c-0.3-0.1-0.8-0.2-1.2-0.4c-0.4-0.2-0.9-0.3-1.2-0.4
						C80.7,41.6,80.5,41.5,80.5,41.5z"/>
				</g>
			</g>
			<g>
				<g>
					<path fill="#0B9DD9" d="M76,38.6L75,39.7c0,0,0.2,0.2,0.5,0.4c0.3,0.2,0.7,0.5,1.1,0.8c0.4,0.3,0.8,0.6,1.1,0.8
						c0.3,0.2,0.5,0.3,0.5,0.3l0.7-1.2c0,0-0.2-0.1-0.5-0.3c-0.3-0.2-0.7-0.4-1.1-0.7c-0.4-0.3-0.7-0.6-1-0.8
						C76.1,38.7,76,38.6,76,38.6z"/>
					<path fill="#0B9DD9" d="M72.4,34.4l-1.2,0.8c0,0,0.5,0.9,1.1,1.6c0.3,0.4,0.6,0.8,0.9,1.1c0.3,0.3,0.4,0.5,0.4,0.5l1-1
						c0,0-0.2-0.2-0.4-0.4c-0.2-0.2-0.5-0.6-0.8-1C72.9,35.2,72.4,34.4,72.4,34.4z"/>
					<path fill="#0B9DD9" d="M70.3,29.4l-1.4,0.4c0,0,0.1,0.2,0.2,0.6c0.1,0.4,0.3,0.8,0.4,1.3c0.3,0.9,0.8,1.8,0.8,1.8l1.3-0.6
						c0,0-0.4-0.8-0.7-1.7c-0.2-0.4-0.3-0.9-0.4-1.2C70.4,29.6,70.3,29.4,70.3,29.4z"/>
					<path fill="#0B9DD9" d="M69.8,24l-1.4-0.1c0,0-0.1,1,0,2c0,1,0.2,2,0.2,2l1.4-0.2c0,0-0.2-0.9-0.2-1.8
						C69.7,24.9,69.8,24,69.8,24z"/>
					<path fill="#0B9DD9" d="M70.9,18.6l-1.3-0.5c0,0-0.4,0.9-0.6,1.9c-0.1,0.5-0.3,1-0.3,1.3c-0.1,0.4-0.1,0.6-0.1,0.6l1.4,0.2
						c0,0,0-0.2,0.1-0.6c0-0.3,0.2-0.8,0.3-1.2C70.5,19.5,70.9,18.6,70.9,18.6z"/>
					<path fill="#0B9DD9" d="M73.5,13.9L72.4,13c0,0-0.1,0.2-0.4,0.5c-0.2,0.3-0.5,0.7-0.8,1.1c-0.5,0.8-1,1.7-1,1.7l1.3,0.6
						c0,0,0.4-0.8,0.9-1.6c0.2-0.4,0.5-0.8,0.7-1.1C73.4,14,73.5,13.9,73.5,13.9z"/>
					<path fill="#0B9DD9" d="M77.4,10.1l-0.8-1.2c0,0-0.2,0.1-0.5,0.4c-0.3,0.2-0.7,0.5-1.1,0.9c-0.4,0.3-0.7,0.7-1,0.9
						c-0.3,0.3-0.4,0.5-0.4,0.5l1,1c0,0,0.2-0.2,0.4-0.4c0.2-0.2,0.6-0.5,0.9-0.9c0.3-0.3,0.7-0.6,1-0.8
						C77.2,10.2,77.4,10.1,77.4,10.1z"/>
				</g>
			</g>
			<g>
				<g>
					<path fill="#0B9DD9" d="M82.3,7.6l-0.4-1.4c0,0-0.2,0.1-0.6,0.2C80.9,6.6,80.4,6.7,80,7c-0.4,0.2-0.9,0.4-1.2,0.6
						c-0.3,0.2-0.5,0.3-0.5,0.3l0.7,1.2c0,0,0.2-0.1,0.5-0.3c0.3-0.1,0.7-0.3,1.1-0.5c0.4-0.2,0.9-0.3,1.2-0.5
						C82.1,7.7,82.3,7.6,82.3,7.6z"/>
					<path fill="#0B9DD9" d="M87.6,6.7l0-1.4c0,0-0.2,0-0.6,0c-0.4,0-0.9,0-1.4,0.1c-0.5,0.1-1,0.1-1.3,0.2
						c-0.4,0.1-0.6,0.1-0.6,0.1L84,7.1c0,0,0.2-0.1,0.6-0.1c0.3-0.1,0.8-0.1,1.2-0.2c0.5-0.1,0.9-0.1,1.3-0.1
						C87.4,6.7,87.6,6.7,87.6,6.7z"/>
					<path fill="#0B9DD9" d="M93,7.4L93.5,6c0,0-0.2-0.1-0.6-0.2c-0.4-0.1-0.8-0.2-1.3-0.3c-0.5-0.1-1-0.1-1.3-0.2
						c-0.4,0-0.6,0-0.6,0l-0.1,1.4c0,0,0.2,0,0.6,0c0.3,0.1,0.8,0.1,1.2,0.2c0.5,0,0.9,0.2,1.2,0.3C92.8,7.3,93,7.4,93,7.4z"/>
					<path fill="#0B9DD9" d="M98,9.6l0.8-1.2c0,0-0.2-0.1-0.5-0.3c-0.3-0.2-0.7-0.5-1.2-0.7c-0.4-0.2-0.9-0.4-1.2-0.6
						c-0.3-0.1-0.6-0.2-0.6-0.2l-0.5,1.3c0,0,0.2,0.1,0.5,0.2c0.3,0.1,0.7,0.3,1.1,0.5c0.4,0.2,0.8,0.4,1.1,0.6
						C97.8,9.5,98,9.6,98,9.6z"/>
					<path fill="#0B9DD9" d="M102.1,13.2l1.1-0.9c0,0-0.2-0.2-0.4-0.5c-0.3-0.3-0.6-0.7-0.9-1c-0.4-0.3-0.7-0.7-1-0.9
						c-0.3-0.3-0.5-0.4-0.5-0.4l-0.9,1.1c0,0,0.2,0.1,0.4,0.4c0.3,0.2,0.6,0.5,0.9,0.8c0.3,0.3,0.6,0.7,0.9,0.9
						C102,13,102.1,13.2,102.1,13.2z"/>
					<path fill="#0B9DD9" d="M105,17.8l1.3-0.6c0,0-0.4-0.9-0.9-1.8c-0.3-0.4-0.5-0.8-0.7-1.2c-0.2-0.3-0.3-0.5-0.3-0.5l-1.2,0.8
						c0,0,0.1,0.2,0.3,0.5c0.2,0.3,0.4,0.7,0.7,1.1C104.6,17,105,17.8,105,17.8z"/>
					<path fill="#0B9DD9" d="M106.3,23.1l1.4-0.1c0,0,0-0.2-0.1-0.6c-0.1-0.4-0.1-0.9-0.2-1.3c-0.2-1-0.5-1.9-0.5-1.9l-1.4,0.4
						c0,0,0.2,0.9,0.5,1.8c0.1,0.5,0.1,0.9,0.2,1.2C106.3,22.9,106.3,23.1,106.3,23.1z"/>
				</g>
			</g>
		</g>
	</g>
</g>
<ellipse fill="none" stroke="#0B9DD9" stroke-miterlimit="10" cx="88.2" cy="25" rx="16.7" ry="16.6"/>
<path fill="#F47D2B" d="M92,22.4l-9.1-2.3c-1.4-0.4-2.3-1.8-1.9-3.2l0,0c0.4-1.4,1.8-2.3,3.2-1.9l9.1,2.3c1.4,0.4,2.3,1.8,1.9,3.2v0
	C94.8,21.9,93.4,22.7,92,22.4z"/>
<path fill="#F47D2B" d="M94.5,29.4l-15.1-3.8c-1.4-0.4-2.3-1.8-1.9-3.2l0,0c0.4-1.4,1.8-2.3,3.2-1.9l15.1,3.8
	c1.4,0.4,2.3,1.8,1.9,3.2v0C97.3,28.9,95.9,29.8,94.5,29.4z"/>
<path fill="#F47D2B" d="M91.1,34.6l-9.1-2.3c-1.4-0.4-2.3-1.8-1.9-3.2l0,0c0.4-1.4,1.8-2.3,3.2-1.9l9.1,2.3c1.4,0.4,2.3,1.8,1.9,3.2
	l0,0C93.9,34.1,92.5,35,91.1,34.6z"/>
</svg>
